<?xml version="1.0" encoding="iso-8859-1"?>
<!-- Generator: Adobe Illustrator 19.0.0, SVG Export Plug-In . SVG Version: 6.00 Build 0)  -->
<svg version="1.1" id="Layer_1" xmlns="http://www.w3.org/2000/svg" xmlns:xlink="http://www.w3.org/1999/xlink" x="0px" y="0px"
	 viewBox="0 0 115.954 115.954" style="enable-background:new 0 0 115.954 115.954;" xml:space="preserve">
<g id="XMLID_219_">
	<path id="XMLID_287_" style="fill:#E40103;" d="M97.279,54.944c0.036-0.119,0.063-0.236,0.098-0.355
		c0.18-0.627,0.335-1.246,0.47-1.86c0.049-0.223,0.099-0.446,0.142-0.668c0.13-0.67,0.238-1.333,0.315-1.986
		c0.025-0.215,0.037-0.425,0.058-0.638c0.045-0.489,0.075-0.973,0.092-1.452c0.003-0.095,0.016-0.193,0.018-0.288
		c0.001,0.015,0.002,0.03,0.003,0.045c0-0.024-0.002-0.047-0.001-0.072c0.003-0.139-0.001-0.274,0-0.413
		c0-0.059,0.005-0.121,0.005-0.18c-0.001,0.043-0.006,0.088-0.007,0.132c0-0.042-0.004-0.083-0.004-0.125
		c-0.003-0.49-0.019-0.975-0.052-1.453c-0.016-0.237-0.033-0.473-0.057-0.707c-0.057-0.564-0.131-1.122-0.229-1.667
		c-0.03-0.17-0.065-0.336-0.101-0.504c-0.104-0.512-0.229-1.015-0.37-1.509c-0.061-0.21-0.125-0.418-0.191-0.625
		c-0.147-0.457-0.311-0.907-0.488-1.348c-0.055-0.135-0.101-0.274-0.158-0.407c-0.233-0.544-0.496-1.072-0.776-1.589
		c-0.091-0.168-0.188-0.333-0.284-0.498c-0.233-0.402-0.479-0.794-0.74-1.177c-0.091-0.133-0.177-0.27-0.271-0.401
		c-0.347-0.483-0.716-0.95-1.105-1.401c-0.102-0.118-0.21-0.229-0.315-0.345c-0.325-0.358-0.664-0.706-1.016-1.042
		c-0.121-0.116-0.24-0.232-0.364-0.345c-0.453-0.412-0.924-0.809-1.418-1.184c-0.082-0.063-0.17-0.12-0.253-0.181
		c-0.435-0.319-0.884-0.622-1.346-0.913c-0.147-0.092-0.294-0.183-0.443-0.272c-0.554-0.329-1.119-0.645-1.71-0.931
		c-10.028-4.862-21.888-1.739-28.955,10.574c-6.997-12.356-18.48-15.55-28.538-10.749c-0.593,0.283-1.16,0.596-1.716,0.921
		c-0.151,0.089-0.3,0.18-0.448,0.272c-0.457,0.283-0.901,0.579-1.33,0.89c-0.092,0.066-0.188,0.128-0.279,0.196
		c-0.494,0.371-0.966,0.763-1.42,1.171c-0.128,0.115-0.249,0.234-0.373,0.351c-0.346,0.326-0.679,0.664-0.998,1.011
		c-0.116,0.126-0.234,0.248-0.347,0.377c-0.389,0.446-0.759,0.906-1.104,1.384c-0.098,0.134-0.185,0.274-0.278,0.41
		c-0.256,0.372-0.499,0.753-0.729,1.143c-0.106,0.18-0.212,0.359-0.312,0.542c-0.271,0.497-0.528,1.003-0.757,1.526
		c-0.063,0.144-0.116,0.294-0.177,0.44c-0.178,0.436-0.343,0.879-0.491,1.332c-0.073,0.225-0.142,0.452-0.209,0.681
		c-0.124,0.428-0.233,0.863-0.329,1.304c-0.041,0.186-0.091,0.366-0.127,0.554c-0.11,0.58-0.191,1.173-0.255,1.775
		c-0.027,0.253-0.044,0.509-0.063,0.766c-0.031,0.431-0.048,0.868-0.054,1.309c-0.001,0.082-0.01,0.161-0.011,0.243
		c0-0.036-0.004-0.072-0.005-0.107c0,0.047,0.004,0.096,0.004,0.143c0,0.152,0,0.303,0.003,0.456
		c0.001,0.042-0.002,0.082-0.001,0.123c0-0.025,0.003-0.05,0.004-0.075c0.001,0.061,0.009,0.125,0.011,0.186
		c0.013,0.484,0.041,0.974,0.084,1.469c0.019,0.215,0.03,0.427,0.055,0.644c0.074,0.655,0.178,1.32,0.304,1.991
		c0.041,0.215,0.089,0.433,0.135,0.649c0.131,0.611,0.28,1.228,0.456,1.851c0.035,0.127,0.063,0.251,0.102,0.378
		c0.216,0.735,0.474,1.48,0.755,2.23c0.07,0.189,0.145,0.378,0.22,0.568c0.307,0.775,0.634,1.556,1.011,2.345
		c4.979,10.43,37.197,38.191,37.205,38.198h0.001c0,0,32.392-27.571,37.434-37.973c0.382-0.787,0.714-1.565,1.025-2.338
		c0.077-0.191,0.152-0.383,0.226-0.573C96.796,56.423,97.059,55.679,97.279,54.944z"/>
	<g id="XMLID_105_">
		<path id="XMLID_286_" style="fill:#41A9C4;" d="M57.824,39.158c3.867-6.737,9.172-10.705,14.823-12.136V0H43.308v26.942
			C48.842,28.415,54.003,32.411,57.824,39.158z"/>
		<path id="XMLID_285_" style="fill:#41A9C4;" d="M20.618,59.859c-0.377-0.789-0.704-1.569-1.011-2.345
			c-0.075-0.19-0.149-0.379-0.22-0.568c-0.281-0.75-0.539-1.495-0.755-2.23c-0.038-0.127-0.066-0.252-0.102-0.378
			c-0.176-0.623-0.326-1.24-0.456-1.851c-0.046-0.217-0.094-0.434-0.135-0.649c-0.126-0.671-0.23-1.335-0.304-1.991
			c-0.024-0.216-0.036-0.429-0.055-0.644c-0.043-0.495-0.071-0.984-0.084-1.469c-0.002-0.062-0.01-0.125-0.011-0.186
			c-0.001,0.025-0.004,0.05-0.004,0.075c-0.001-0.041,0.002-0.081,0.001-0.123c-0.003-0.153-0.003-0.304-0.003-0.456
			c0-0.047-0.004-0.096-0.004-0.143c0.001,0.035,0.005,0.071,0.005,0.107c0.001-0.083,0.01-0.161,0.011-0.243
			c0.006-0.441,0.023-0.877,0.054-1.309c0.019-0.257,0.035-0.513,0.063-0.766c0.05-0.469,0.122-0.927,0.198-1.383H0v29.338h30.793
			C26.031,67.639,22.105,62.975,20.618,59.859z"/>
		<path id="XMLID_284_" style="fill:#41A9C4;" d="M57.825,98.057L57.825,98.057c-0.004-0.003-6.734-5.804-14.516-13.095v30.991
			h29.338V84.839C64.723,92.184,57.825,98.057,57.825,98.057z"/>
		<path id="XMLID_283_" style="fill:#41A9C4;" d="M98.135,43.308c0.095,0.53,0.168,1.069,0.223,1.617
			c0.023,0.233,0.041,0.47,0.057,0.707c0.033,0.478,0.049,0.963,0.052,1.453c0,0.042,0.004,0.083,0.004,0.125
			c0.001-0.044,0.006-0.089,0.007-0.132c0,0.059-0.005,0.121-0.005,0.18c-0.001,0.138,0.003,0.274,0,0.413
			c-0.001,0.025,0.001,0.047,0.001,0.072c-0.001-0.015-0.002-0.03-0.003-0.045c-0.002,0.094-0.015,0.192-0.018,0.288
			c-0.017,0.479-0.047,0.963-0.092,1.452c-0.021,0.213-0.032,0.423-0.058,0.638c-0.077,0.653-0.186,1.317-0.315,1.986
			c-0.043,0.222-0.093,0.445-0.142,0.668c-0.135,0.614-0.29,1.234-0.47,1.86c-0.034,0.119-0.061,0.236-0.098,0.355
			c-0.221,0.735-0.483,1.479-0.77,2.229c-0.073,0.19-0.148,0.382-0.226,0.573c-0.312,0.773-0.644,1.551-1.025,2.338
			c-1.489,3.072-5.372,7.646-10.095,12.561h30.79V43.308H98.135z"/>
	</g>
	<path id="XMLID_280_" style="fill:#FFFFFF;" d="M83.174,57.537c0.023-0.077,0.04-0.152,0.063-0.228
		c0.115-0.402,0.215-0.799,0.301-1.193c0.031-0.143,0.064-0.286,0.091-0.428c0.084-0.429,0.153-0.854,0.202-1.273
		c0.017-0.138,0.024-0.272,0.037-0.409c0.028-0.314,0.049-0.624,0.059-0.931c0.002-0.061,0.011-0.124,0.012-0.184
		c0,0.01,0.002,0.019,0.002,0.029c0-0.016-0.001-0.03-0.001-0.046c0.002-0.089,0-0.176,0-0.264c0-0.038,0.003-0.078,0.003-0.116
		c0,0.028-0.003,0.057-0.004,0.085c0-0.027-0.003-0.053-0.003-0.08c-0.001-0.314-0.012-0.625-0.032-0.932
		c-0.011-0.152-0.021-0.303-0.037-0.453c-0.036-0.362-0.084-0.719-0.146-1.069c-0.02-0.108-0.042-0.215-0.064-0.322
		c-0.067-0.329-0.147-0.651-0.238-0.968c-0.038-0.135-0.079-0.268-0.122-0.401c-0.095-0.293-0.199-0.582-0.312-0.864
		c-0.035-0.086-0.066-0.175-0.102-0.261c-0.15-0.349-0.318-0.687-0.498-1.019c-0.059-0.108-0.121-0.213-0.183-0.319
		c-0.149-0.257-0.308-0.509-0.475-0.754c-0.058-0.085-0.113-0.173-0.173-0.257c-0.223-0.31-0.459-0.609-0.709-0.898
		c-0.065-0.076-0.135-0.147-0.202-0.222c-0.208-0.23-0.426-0.453-0.651-0.668c-0.078-0.074-0.153-0.149-0.233-0.221
		c-0.291-0.264-0.592-0.519-0.909-0.759c-0.053-0.04-0.109-0.077-0.162-0.116c-0.278-0.205-0.566-0.399-0.863-0.584
		c-0.094-0.059-0.188-0.118-0.284-0.175c-0.354-0.21-0.717-0.413-1.096-0.597c-6.43-3.118-14.032-1.115-18.563,6.779
		c-4.483-7.921-11.846-9.969-18.294-6.891c-0.38,0.181-0.744,0.381-1.1,0.59c-0.098,0.057-0.192,0.116-0.288,0.175
		c-0.293,0.181-0.578,0.371-0.853,0.57c-0.06,0.042-0.121,0.083-0.179,0.126c-0.317,0.238-0.62,0.489-0.911,0.751
		c-0.082,0.073-0.159,0.15-0.239,0.225c-0.222,0.209-0.435,0.425-0.64,0.648c-0.074,0.081-0.15,0.159-0.222,0.241
		c-0.25,0.286-0.486,0.581-0.709,0.887c-0.062,0.085-0.118,0.175-0.178,0.263c-0.164,0.239-0.32,0.483-0.468,0.733
		c-0.067,0.115-0.136,0.23-0.2,0.348c-0.174,0.318-0.338,0.643-0.484,0.978c-0.041,0.093-0.075,0.189-0.113,0.282
		c-0.115,0.28-0.22,0.564-0.315,0.854c-0.047,0.144-0.092,0.29-0.134,0.437c-0.08,0.274-0.149,0.553-0.211,0.836
		c-0.026,0.119-0.058,0.234-0.082,0.355c-0.07,0.372-0.122,0.752-0.163,1.138c-0.018,0.162-0.028,0.327-0.04,0.491
		c-0.02,0.277-0.03,0.556-0.034,0.839c-0.001,0.053-0.007,0.103-0.007,0.156c0-0.022-0.003-0.046-0.003-0.068
		c-0.001,0.03,0.002,0.061,0.002,0.092c0,0.097,0,0.194,0.002,0.292c0.001,0.026-0.001,0.052-0.001,0.079
		c0-0.017,0.002-0.032,0.003-0.048c0.001,0.039,0.006,0.08,0.007,0.119c0.008,0.311,0.026,0.625,0.054,0.941
		c0.012,0.138,0.02,0.274,0.035,0.413c0.047,0.42,0.114,0.846,0.195,1.276c0.025,0.138,0.057,0.277,0.086,0.416
		c0.083,0.392,0.18,0.787,0.292,1.187c0.023,0.081,0.041,0.161,0.065,0.243c0.139,0.471,0.304,0.949,0.483,1.43
		c0.046,0.121,0.094,0.242,0.142,0.364c0.196,0.497,0.406,0.997,0.648,1.503c3.192,6.687,23.848,24.485,23.853,24.49l0,0
		c0,0,20.768-17.677,24-24.345c0.245-0.504,0.458-1.003,0.657-1.499c0.05-0.123,0.099-0.246,0.146-0.368
		C82.865,58.485,83.033,58.008,83.174,57.537z"/>
	<polygon id="XMLID_215_" style="fill:#328A9E;" points="43.308,0 57.978,7.911 72.646,0 	"/>
	<polygon id="XMLID_216_" style="fill:#328A9E;" points="72.646,115.954 57.978,108.044 43.308,115.954 	"/>
	<polygon id="XMLID_218_" style="fill:#328A9E;" points="115.954,43.308 108.044,57.977 115.954,72.646 	"/>
	<polygon id="XMLID_214_" style="fill:#328A9E;" points="0,72.646 7.91,57.977 0,43.308 	"/>
</g>
<g>
</g>
<g>
</g>
<g>
</g>
<g>
</g>
<g>
</g>
<g>
</g>
<g>
</g>
<g>
</g>
<g>
</g>
<g>
</g>
<g>
</g>
<g>
</g>
<g>
</g>
<g>
</g>
<g>
</g>
</svg>
